<svg version="1.1" xmlns="http://www.w3.org/2000/svg" xmlns:xlink="http://www.w3.org/1999/xlink" width="350" height="180"><defs/><g><g transform="translate(-286,-302) scale(1,1)"><rect fill="#C0C0C0" stroke="none" x="303" y="319" width="328" height="32" opacity="0.2"/></g><g transform="translate(-286,-302) scale(1,1)"><rect fill="#ffffff" stroke="none" x="296" y="312" width="328" height="32"/></g><g transform="translate(-286,-302) scale(1,1)"><path fill="none" stroke="#000000" d="M 296 312 L 624 312 L 624 344 L 296 344 L 296 312 Z Z" stroke-miterlimit="10"/></g><g transform="translate(-286,-302) scale(1,1)"><g><path fill="none" stroke="none"/><text fill="#000000" stroke="none" font-family="Arial" font-size="13px" font-style="normal" font-weight="bold" text-decoration="none" x="450" y="329.5">Car</text></g></g><g transform="translate(-286,-302) scale(1,1)"><rect fill="#C0C0C0" stroke="none" x="303" y="447" width="96" height="32" opacity="0.2"/></g><g transform="translate(-286,-302) scale(1,1)"><rect fill="#ffffff" stroke="none" x="296" y="440" width="96" height="32"/></g><g transform="translate(-286,-302) scale(1,1)"><path fill="none" stroke="#000000" d="M 296 440 L 392 440 L 392 472 L 296 472 L 296 440 Z Z" stroke-miterlimit="10"/></g><g transform="translate(-286,-302) scale(1,1)"><g><path fill="none" stroke="none"/><text fill="#000000" stroke="none" font-family="Arial" font-size="13px" font-style="normal" font-weight="bold" text-decoration="none" x="330.5" y="457.5">Seat</text></g></g><g transform="translate(-286,-302) scale(1,1)"><rect fill="#C0C0C0" stroke="none" x="535" y="447" width="98" height="32" opacity="0.2"/></g><g transform="translate(-286,-302) scale(1,1)"><rect fill="#ffffff" stroke="none" x="528" y="440" width="98" height="32"/></g><g transform="translate(-286,-302) scale(1,1)"><path fill="none" stroke="#000000" d="M 528 440 L 626 440 L 626 472 L 528 472 L 528 440 Z Z" stroke-miterlimit="10"/></g><g transform="translate(-286,-302) scale(1,1)"><g><path fill="none" stroke="none"/><text fill="#000000" stroke="none" font-family="Arial" font-size="13px" font-style="normal" font-weight="bold" text-decoration="none" x="546" y="457.5">Passenger</text></g></g><g transform="translate(-286,-302) scale(1,1)"><path fill="none" stroke="#000000" d="M 344 344 L 344 440" stroke-miterlimit="10"/></g><g transform="translate(-286,-302) scale(1,1)"><path fill="none" stroke="#000000" d="M 344 426 L 337 440" stroke-miterlimit="10"/></g><g transform="translate(-286,-302) scale(1,1)"><path fill="none" stroke="#000000" d="M 344 426 L 351 440" stroke-miterlimit="10"/></g><g transform="translate(-286,-302) scale(1,1)"><path fill="none" stroke="#000000" d="M 351 351 L 337 351" stroke-miterlimit="10"/></g><g transform="translate(-286,-302) scale(1,1)"><g><path fill="none" stroke="none"/><text fill="#000000" stroke="none" font-family="Arial" font-size="13px" font-style="normal" font-weight="normal" text-decoration="none" x="358.5" y="375.5"></text></g></g><g transform="translate(-286,-302) scale(1,1)"><g><path fill="none" stroke="none"/><text fill="#000000" stroke="none" font-family="Arial" font-size="13px" font-style="normal" font-weight="normal" text-decoration="none" x="358.5" y="420.5"></text></g></g><g transform="translate(-286,-302) scale(1,1)"><path fill="none" stroke="#000000" d="M 576 344 L 576 440" stroke-miterlimit="10"/></g><g transform="translate(-286,-302) scale(1,1)"><path fill="none" stroke="#000000" d="M 576 426 L 569 440" stroke-miterlimit="10"/></g><g transform="translate(-286,-302) scale(1,1)"><path fill="none" stroke="#000000" d="M 576 426 L 583 440" stroke-miterlimit="10"/></g><g transform="translate(-286,-302) scale(1,1)"><path fill="none" stroke="#000000" d="M 583 351 L 569 351" stroke-miterlimit="10"/></g><g transform="translate(-286,-302) scale(1,1)"><g><path fill="none" stroke="none"/><text fill="#000000" stroke="none" font-family="Arial" font-size="13px" font-style="normal" font-weight="normal" text-decoration="none" x="590.5" y="375.5"></text></g></g><g transform="translate(-286,-302) scale(1,1)"><g><path fill="none" stroke="none"/><text fill="#000000" stroke="none" font-family="Arial" font-size="13px" font-style="normal" font-weight="normal" text-decoration="none" x="590.5" y="420.5"></text></g></g></g></svg>