<svg version="1.1" xmlns="http://www.w3.org/2000/svg" xmlns:xlink="http://www.w3.org/1999/xlink" width="355" height="223"><defs/><g><g transform="translate(-286,-302) scale(1,1)"><rect fill="#C0C0C0" stroke="none" x="303" y="319" width="328" height="45" opacity="0.2"/></g><g transform="translate(-286,-302) scale(1,1)"><rect fill="#ffffff" stroke="none" x="296" y="312" width="328" height="45"/></g><g transform="translate(-286,-302) scale(1,1)"><path fill="none" stroke="#000000" d="M 296 312 L 624 312 L 624 357 L 296 357 L 296 312 Z Z" stroke-miterlimit="10"/></g><g transform="translate(-286,-302) scale(1,1)"><path fill="none" stroke="#000000" d="M 296 335 L 624 335" stroke-miterlimit="10"/></g><g transform="translate(-286,-302) scale(1,1)"><path fill="none" stroke="#000000" d="M 324 335 L 324 357" stroke-miterlimit="10"/></g><g transform="translate(-286,-302) scale(1,1)"><path fill="none" stroke="#000000" d="M 346 335 L 346 357" stroke-miterlimit="10"/></g><g transform="translate(-286,-302) scale(1,1)"><g><path fill="none" stroke="none"/><text fill="#000000" stroke="none" font-family="Arial" font-size="13px" font-style="normal" font-weight="bold" text-decoration="none" x="450" y="329.5">Car</text></g></g><g transform="translate(-286,-302) scale(1,1)"><g><path fill="none" stroke="none"/><text fill="#000000" stroke="none" font-family="Arial" font-size="13px" font-style="normal" font-weight="normal" text-decoration="none" x="301" y="353">PK</text></g></g><g transform="translate(-286,-302) scale(1,1)"><g><path fill="none" stroke="none"/><text fill="#000000" stroke="none" font-family="Arial" font-size="13px" font-style="normal" font-weight="normal" text-decoration="none" x="329" y="353">id</text></g></g><g transform="translate(-286,-302) scale(1,1)"><g><path fill="none" stroke="none"/><text fill="#000000" stroke="none" font-family="Arial" font-size="13px" font-style="normal" font-weight="normal" text-decoration="none" x="351" y="353"></text></g></g><g transform="translate(-286,-302) scale(1,1)"><rect fill="#C0C0C0" stroke="none" x="303" y="447" width="136" height="75" opacity="0.2"/></g><g transform="translate(-286,-302) scale(1,1)"><rect fill="#ffffff" stroke="none" x="296" y="440" width="136" height="75"/></g><g transform="translate(-286,-302) scale(1,1)"><path fill="none" stroke="#000000" d="M 296 440 L 432 440 L 432 515 L 296 515 L 296 440 Z Z" stroke-miterlimit="10"/></g><g transform="translate(-286,-302) scale(1,1)"><path fill="none" stroke="#000000" d="M 296 463 L 432 463" stroke-miterlimit="10"/></g><g transform="translate(-286,-302) scale(1,1)"><path fill="none" stroke="#000000" d="M 324 463 L 324 515" stroke-miterlimit="10"/></g><g transform="translate(-286,-302) scale(1,1)"><path fill="none" stroke="#000000" d="M 417 463 L 417 515" stroke-miterlimit="10"/></g><g transform="translate(-286,-302) scale(1,1)"><g><path fill="none" stroke="none"/><text fill="#000000" stroke="none" font-family="Arial" font-size="13px" font-style="normal" font-weight="bold" text-decoration="none" x="350.5" y="457.5">Seat</text></g></g><g transform="translate(-286,-302) scale(1,1)"><g><path fill="none" stroke="none"/><text fill="#000000" stroke="none" font-family="Arial" font-size="13px" font-style="normal" font-weight="normal" text-decoration="none" x="301" y="481">PK</text></g></g><g transform="translate(-286,-302) scale(1,1)"><g><path fill="none" stroke="none"/><text fill="#000000" stroke="none" font-family="Arial" font-size="13px" font-style="normal" font-weight="normal" text-decoration="none" x="329" y="481">id</text></g></g><g transform="translate(-286,-302) scale(1,1)"><g><path fill="none" stroke="none"/><text fill="#000000" stroke="none" font-family="Arial" font-size="13px" font-style="normal" font-weight="normal" text-decoration="none" x="422" y="481"></text></g></g><g transform="translate(-286,-302) scale(1,1)"><g><path fill="none" stroke="none"/><text fill="#000000" stroke="none" font-family="Arial" font-size="13px" font-style="normal" font-weight="normal" text-decoration="none" x="301" y="496">FK</text></g></g><g transform="translate(-286,-302) scale(1,1)"><g><path fill="none" stroke="none"/><text fill="#000000" stroke="none" font-family="Arial" font-size="13px" font-style="normal" font-weight="normal" text-decoration="none" x="329" y="496">car_id</text></g></g><g transform="translate(-286,-302) scale(1,1)"><g><path fill="none" stroke="none"/><text fill="#000000" stroke="none" font-family="Arial" font-size="13px" font-style="normal" font-weight="normal" text-decoration="none" x="422" y="496"></text></g></g><g transform="translate(-286,-302) scale(1,1)"><g><path fill="none" stroke="none"/><text fill="#000000" stroke="none" font-family="Arial" font-size="13px" font-style="normal" font-weight="normal" text-decoration="none" x="301" y="511">FK</text></g></g><g transform="translate(-286,-302) scale(1,1)"><g><path fill="none" stroke="none"/><text fill="#000000" stroke="none" font-family="Arial" font-size="13px" font-style="normal" font-weight="normal" text-decoration="none" x="329" y="511">passenger_id</text></g></g><g transform="translate(-286,-302) scale(1,1)"><g><path fill="none" stroke="none"/><text fill="#000000" stroke="none" font-family="Arial" font-size="13px" font-style="normal" font-weight="normal" text-decoration="none" x="422" y="511"></text></g></g><g transform="translate(-286,-302) scale(1,1)"><rect fill="#C0C0C0" stroke="none" x="503" y="447" width="135" height="75" opacity="0.2"/></g><g transform="translate(-286,-302) scale(1,1)"><rect fill="#ffffff" stroke="none" x="496" y="440" width="135" height="75"/></g><g transform="translate(-286,-302) scale(1,1)"><path fill="none" stroke="#000000" d="M 496 440 L 631 440 L 631 515 L 496 515 L 496 440 Z Z" stroke-miterlimit="10"/></g><g transform="translate(-286,-302) scale(1,1)"><path fill="none" stroke="#000000" d="M 496 463 L 631 463" stroke-miterlimit="10"/></g><g transform="translate(-286,-302) scale(1,1)"><path fill="none" stroke="#000000" d="M 524 463 L 524 515" stroke-miterlimit="10"/></g><g transform="translate(-286,-302) scale(1,1)"><path fill="none" stroke="#000000" d="M 578 463 L 578 515" stroke-miterlimit="10"/></g><g transform="translate(-286,-302) scale(1,1)"><g><path fill="none" stroke="none"/><text fill="#000000" stroke="none" font-family="Arial" font-size="13px" font-style="normal" font-weight="bold" text-decoration="none" x="532.5" y="457.5">Passenger</text></g></g><g transform="translate(-286,-302) scale(1,1)"><g><path fill="none" stroke="none"/><text fill="#000000" stroke="none" font-family="Arial" font-size="13px" font-style="normal" font-weight="normal" text-decoration="none" x="501" y="481">PK</text></g></g><g transform="translate(-286,-302) scale(1,1)"><g><path fill="none" stroke="none"/><text fill="#000000" stroke="none" font-family="Arial" font-size="13px" font-style="normal" font-weight="normal" text-decoration="none" x="529" y="481">id</text></g></g><g transform="translate(-286,-302) scale(1,1)"><g><path fill="none" stroke="none"/><text fill="#000000" stroke="none" font-family="Arial" font-size="13px" font-style="normal" font-weight="normal" text-decoration="none" x="583" y="481"></text></g></g><g transform="translate(-286,-302) scale(1,1)"><g><path fill="none" stroke="none"/><text fill="#000000" stroke="none" font-family="Arial" font-size="13px" font-style="normal" font-weight="normal" text-decoration="none" x="501" y="496">FK</text></g></g><g transform="translate(-286,-302) scale(1,1)"><g><path fill="none" stroke="none"/><text fill="#000000" stroke="none" font-family="Arial" font-size="13px" font-style="normal" font-weight="normal" text-decoration="none" x="529" y="496">car_id</text></g></g><g transform="translate(-286,-302) scale(1,1)"><g><path fill="none" stroke="none"/><text fill="#000000" stroke="none" font-family="Arial" font-size="13px" font-style="normal" font-weight="normal" text-decoration="none" x="583" y="496"></text></g></g><g transform="translate(-286,-302) scale(1,1)"><g><path fill="none" stroke="none"/><text fill="#000000" stroke="none" font-family="Arial" font-size="13px" font-style="normal" font-weight="normal" text-decoration="none" x="501" y="511">FK</text></g></g><g transform="translate(-286,-302) scale(1,1)"><g><path fill="none" stroke="none"/><text fill="#000000" stroke="none" font-family="Arial" font-size="13px" font-style="normal" font-weight="normal" text-decoration="none" x="529" y="511">seat_id</text></g></g><g transform="translate(-286,-302) scale(1,1)"><g><path fill="none" stroke="none"/><text fill="#000000" stroke="none" font-family="Arial" font-size="13px" font-style="normal" font-weight="normal" text-decoration="none" x="583" y="511"></text></g></g><g transform="translate(-286,-302) scale(1,1)"><path fill="none" stroke="#000000" d="M 368 357 L 368 440" stroke-miterlimit="10"/></g><g transform="translate(-286,-302) scale(1,1)"><path fill="none" stroke="#000000" d="M 368 426 L 361 440" stroke-miterlimit="10"/></g><g transform="translate(-286,-302) scale(1,1)"><path fill="none" stroke="#000000" d="M 368 426 L 375 440" stroke-miterlimit="10"/></g><g transform="translate(-286,-302) scale(1,1)"><path fill="none" stroke="#000000" d="M 375 364 L 361 364" stroke-miterlimit="10"/></g><g transform="translate(-286,-302) scale(1,1)"><g><path fill="none" stroke="none"/><text fill="#000000" stroke="none" font-family="Arial" font-size="13px" font-style="normal" font-weight="normal" text-decoration="none" x="382.5" y="388.5"></text></g></g><g transform="translate(-286,-302) scale(1,1)"><g><path fill="none" stroke="none"/><text fill="#000000" stroke="none" font-family="Arial" font-size="13px" font-style="normal" font-weight="normal" text-decoration="none" x="382.5" y="420.5"></text></g></g><g transform="translate(-286,-302) scale(1,1)"><path fill="none" stroke="#000000" d="M 560 357 L 560 440" stroke-miterlimit="10"/></g><g transform="translate(-286,-302) scale(1,1)"><path fill="none" stroke="#000000" d="M 560 426 L 553 440" stroke-miterlimit="10"/></g><g transform="translate(-286,-302) scale(1,1)"><path fill="none" stroke="#000000" d="M 560 426 L 567 440" stroke-miterlimit="10"/></g><g transform="translate(-286,-302) scale(1,1)"><path fill="none" stroke="#000000" d="M 567 364 L 553 364" stroke-miterlimit="10"/></g><g transform="translate(-286,-302) scale(1,1)"><g><path fill="none" stroke="none"/><text fill="#000000" stroke="none" font-family="Arial" font-size="13px" font-style="normal" font-weight="normal" text-decoration="none" x="574.5" y="388.5"></text></g></g><g transform="translate(-286,-302) scale(1,1)"><g><path fill="none" stroke="none"/><text fill="#000000" stroke="none" font-family="Arial" font-size="13px" font-style="normal" font-weight="normal" text-decoration="none" x="574.5" y="420.5"></text></g></g><g transform="translate(-286,-302) scale(1,1)"><path fill="none" stroke="#000000" d="M 432 456 L 496 456" stroke-miterlimit="10"/></g><g transform="translate(-286,-302) scale(1,1)"><path fill="none" stroke="#000000" d="M 489 463 L 489 449" stroke-miterlimit="10"/></g><g transform="translate(-286,-302) scale(1,1)"><path fill="none" stroke="#000000" d="M 439 449 L 439 463" stroke-miterlimit="10"/></g><g transform="translate(-286,-302) scale(1,1)"><g><path fill="none" stroke="none"/><text fill="#000000" stroke="none" font-family="Arial" font-size="13px" font-style="normal" font-weight="normal" text-decoration="none" x="456.5" y="447.5"></text></g></g><g transform="translate(-286,-302) scale(1,1)"><g><path fill="none" stroke="none"/><text fill="#000000" stroke="none" font-family="Arial" font-size="13px" font-style="normal" font-weight="normal" text-decoration="none" x="469.5" y="447.5"></text></g></g></g></svg>